<?xml version="1.0" encoding="UTF-8" standalone="no"?>
<!-- Created with Inkscape (http://www.inkscape.org/) -->

<svg
   xmlns:dc="http://purl.org/dc/elements/1.1/"
   xmlns:cc="http://creativecommons.org/ns#"
   xmlns:rdf="http://www.w3.org/1999/02/22-rdf-syntax-ns#"
   xmlns:svg="http://www.w3.org/2000/svg"
   xmlns="http://www.w3.org/2000/svg"
   xmlns:sodipodi="http://sodipodi.sourceforge.net/DTD/sodipodi-0.dtd"
   xmlns:inkscape="http://www.inkscape.org/namespaces/inkscape"
   width="17.29608mm"
   height="21.28335mm"
   viewBox="0 0 17.29608 21.28335"
   version="1.1"
   id="svg8540"
   inkscape:version="0.92.2 2405546, 2018-03-11"
   sodipodi:docname="finna.logo.no-text.svg">
  <defs
     id="defs8534" />
  <sodipodi:namedview
     id="base"
     pagecolor="#ffffff"
     bordercolor="#666666"
     borderopacity="1.0"
     inkscape:pageopacity="0.0"
     inkscape:pageshadow="2"
     inkscape:zoom="3.959798"
     inkscape:cx="55.690857"
     inkscape:cy="-48.949824"
     inkscape:document-units="mm"
     inkscape:current-layer="layer1"
     showgrid="false"
     fit-margin-top="0"
     fit-margin-left="0"
     fit-margin-right="0"
     fit-margin-bottom="0"
     inkscape:window-width="2560"
     inkscape:window-height="1376"
     inkscape:window-x="0"
     inkscape:window-y="27"
     inkscape:window-maximized="1" />
  <metadata
     id="metadata8537">
    <rdf:RDF>
      <cc:Work
         rdf:about="">
        <dc:format>image/svg+xml</dc:format>
        <dc:type
           rdf:resource="http://purl.org/dc/dcmitype/StillImage" />
        <dc:title></dc:title>
      </cc:Work>
    </rdf:RDF>
  </metadata>
  <g
     inkscape:label="Layer 1"
     inkscape:groupmode="layer"
     id="layer1"
     transform="translate(-2.6912466,-3.6321318)">
    <path
       style="fill:#000000;stroke-width:0.26458332"
       inkscape:connector-curvature="0"
       id="path2990"
       d="m 18.284727,6.6446818 -5.31415,-2.64663 c -0.0751,-0.0378 -0.75989,-0.36592 -1.68037,-0.36592 -0.56409,0 -1.09617,0.12356 -1.5822104,0.36592 l -5.31442,2.64663 c -0.0691,0.0341 -1.70233,0.86942 -1.70233,2.74981 v 9.7583702 c 0,0.0781 0.0198,1.91214 1.70259,2.75034 l 5.31416,2.64636 c 0.0757,0.0378 0.7601504,0.36592 1.6803704,0.36592 h 2.6e-4 c 0.56357,0 1.09564,-0.12356 1.58195,-0.36592 l 5.31415,-2.64636 c 0.0691,-0.0347 1.7026,-0.86969 1.7026,-2.75034 V 9.3944918 c 0,-0.0773 -0.0196,-1.91161 -1.7026,-2.74981 m 0.38444,12.5081802 c 0,1.0541 -0.93715,1.55231 -0.97207,1.57109 l -5.31416,2.64636 c -0.30268,0.15082 -0.63685,0.22622 -0.99457,0.22622 h -2.6e-4 c -0.6149,0 -1.09194,-0.22542 -1.09326,-0.22622 l -3.2125704,-1.59993 3.1972204,-1.59782 c 0.27146,0.3638 0.70406,0.6014 1.19301,0.6014 0.821,0 1.48854,-0.66622 1.48775,-1.4867 -2.6e-4,-0.12858 -5.3e-4,-4.64317 -5.3e-4,-4.64317 l 0.38629,-0.18759 c 0.16457,0.15875 0.38709,0.25744 0.63262,0.25744 0.50218,0 0.91149,-0.40984 0.91149,-0.91255 0,-0.5027 -0.40931,-0.91096 -0.91149,-0.91096 -0.50244,0 -0.91175,0.40826 -0.91175,0.91096 0,0.005 7.9e-4,0.009 7.9e-4,0.013 l -0.60325,0.30162 c -0.11827,0.0593 -0.19315,0.18045 -0.19315,0.31274 v 3.60495 c -0.14155,-0.0905 -0.29871,-0.15716 -0.46725,-0.19632 v -6.93923 l 2.1508,-1.0808202 c 0.15981,0.13758 0.3675,0.2222502 0.59372,0.2222502 0.50245,0 0.91149,-0.4095802 0.91149,-0.9120202 0,-0.50297 -0.40904,-0.91175 -0.91149,-0.91175 -0.50191,0 -0.91122,0.40878 -0.91122,0.91175 0,0.0217 0.002,0.0429 0.004,0.0648 l -2.2344,1.1236902 c -0.27385,-0.3196202 -0.67919,-0.5233502 -1.13189,-0.5233502 -0.8212704,0 -1.4890804,0.6686002 -1.4890804,1.4901302 0,0.0315 -0.003,4.70853 -0.003,4.70853 l -0.47942,0.23918 c -0.14949,-0.10636 -0.33126,-0.1696 -0.52837,-0.1696 -0.50191,0 -0.91149,0.40878 -0.91149,0.91149 0,0.50218 0.40958,0.91149 0.91149,0.91149 0.50244,0 0.91149,-0.40931 0.91149,-0.91149 0,-0.0492 -0.005,-0.0976 -0.0127,-0.14525 l 0.61516,-0.30745 c 0.11826,-0.059 0.19314,-0.18045 0.19314,-0.31327 v -3.66553 c 0.14208,0.0902 0.3003,0.15663 0.46858,0.19447 v 6.8191 l -3.65178,1.8251 -1.31736,-0.65617 c -0.94324,-0.46964 -0.97155,-1.53061 -0.97234,-1.5711 V 9.3945018 c 0,-1.0541 0.93741,-1.55231 0.97234,-1.5703 l 5.3138904,-2.64663 c 0.30295,-0.15081 0.63685,-0.22675 0.9951,-0.22675 0.61489,0 1.0914,0.22596 1.09273,0.22675 l 5.31415,2.64663 c 0.94298,0.46937 0.97103,1.53035 0.97208,1.5703 v 9.7583602 z m -7.1964,-0.63447 c 0.42492,0 0.76941,0.34369 0.76941,0.76887 0,0.4244 -0.34449,0.76888 -0.76941,0.76888 -0.42465,0 -0.76861,-0.34475 -0.76861,-0.76888 0,-0.42518 0.34396,-0.76887 0.76861,-0.76887 m -0.36856,-0.67072 c -0.16352,0.0413 -0.31644,0.11006 -0.45429,0.20055 v -5.32527 c 0.1643,-0.0434 0.31776,-0.11112 0.45429,-0.20373 z m -0.82974,-5.78591 c -0.4296804,0 -0.7781404,-0.34899 -0.7781404,-0.77893 0,-0.42995 0.34846,-0.77894 0.7781404,-0.77894 0.43048,0 0.77973,0.34899 0.77973,0.77894 0,0.42994 -0.34925,0.77893 -0.77973,0.77893 m 3.27846,1.73963 c 0,-0.23442 0.19155,-0.42545 0.42571,-0.42545 0.23416,0 0.42519,0.1913 0.42519,0.42545 0,0.23495 -0.19103,0.42572 -0.42519,0.42572 -0.23416,0 -0.42571,-0.19077 -0.42571,-0.42572 m 0.5707,-4.6741202 c 0,-0.23495 0.19103,-0.42545 0.42492,-0.42545 0.23469,0 0.42545,0.19076 0.42545,0.42545 0,0.23442 -0.19103,0.42545 -0.42545,0.42545 -0.23415,2.6e-4 -0.42492,-0.19103 -0.42492,-0.42545 M 8.2004066,16.972692 c 0,0.23469 -0.19077,0.42519 -0.42545,0.42519 -0.23416,0 -0.42572,-0.19077 -0.42572,-0.42519 0,-0.23442 0.19182,-0.42571 0.42572,-0.42571 0.23468,0 0.42545,0.19102 0.42545,0.42571" />
  </g>
</svg>
